<svg width="444" height="738" viewBox="0 0 444 738" fill="none" xmlns="http://www.w3.org/2000/svg">
<path fill-rule="evenodd" clip-rule="evenodd" d="M125.331 0C127.523 0 129.416 1.26936 130.319 3.11109L149.77 3.1111V9.0289L129.659 9.02889C128.642 10.292 127.081 11.1026 125.331 11.1026C123.58 11.1026 122.019 10.292 121.002 9.02888L57.7437 9.02884C57.6193 12.6148 57.0634 17.4368 56.3846 21.2577H97.2588L98.1462 22.4483C102.249 27.9536 105.537 31.1311 109.336 33.0923C113.139 35.0558 117.767 35.9627 124.879 36.2934L149.77 36.2935L149.77 42.2113L124.743 42.2112L124.675 42.2081C117.232 41.8665 111.57 40.9058 106.621 38.3506C102.002 35.966 98.2772 32.3347 94.3031 27.1755H54.0048C50.1634 36.438 46.171 43.0415 40.8916 48.0332C35.5882 53.0476 29.2006 56.2317 20.9548 59.022V94.4397L3.05176e-05 74.2092V53.9213H14.912C14.9076 53.7361 14.9035 53.5442 14.8998 53.346C14.8582 51.092 14.8744 48.0025 15.1092 44.6818C15.343 41.3758 15.799 37.7553 16.6663 34.4704C17.5143 31.2589 18.8495 27.9925 21.089 25.7532C23.3596 23.4827 26.6673 22.2199 29.8933 21.4716C33.1946 20.7058 36.8274 20.3869 40.1378 20.2866C43.4643 20.1858 46.5581 20.3035 48.8143 20.445C49.4424 20.4844 50.0075 20.5258 50.4969 20.5651C51.2363 16.5218 51.8519 10.9978 51.8519 7.62536V3.11103L120.342 3.11108C121.245 1.26935 123.139 0 125.331 0ZM36.8259 43.7332C41.0229 39.7649 44.4671 34.3985 47.9419 26.321C45.8648 26.2018 43.1714 26.1152 40.3171 26.2017C37.2108 26.2958 34.0056 26.5926 31.2306 27.2363C28.3798 27.8976 26.3729 28.8384 25.2733 29.9379C24.1426 31.0685 23.1445 33.1162 22.3881 35.9811C21.6512 38.772 21.2322 41.989 21.0123 45.0992C20.8078 47.9914 20.7802 50.7177 20.8096 52.8062C27.7323 50.3216 32.7291 47.6067 36.8259 43.7332ZM15.0371 80.5008V59.8391H5.91782V71.6967L15.0371 80.5008Z" fill="#E69A28"/>
<path fill-rule="evenodd" clip-rule="evenodd" d="M20.9501 658.463L20.9501 79.4397L15.9501 79.4397L15.9501 658.463L20.9501 658.463Z" fill="#E69A28"/>
<path fill-rule="evenodd" clip-rule="evenodd" d="M125.331 737.903C127.523 737.903 129.416 736.634 130.319 734.792L149.77 734.792V728.874L129.659 728.874C128.642 727.611 127.081 726.801 125.331 726.801C123.58 726.801 122.019 727.611 121.002 728.874L57.7437 728.874C57.6193 725.288 57.0634 720.466 56.3846 716.645H97.2588L98.1462 715.455C102.249 709.95 105.537 706.772 109.336 704.811C113.139 702.847 117.767 701.94 124.879 701.61L149.77 701.61L149.77 695.692L124.743 695.692L124.675 695.695C117.232 696.037 111.57 696.997 106.621 699.552C102.002 701.937 98.2772 705.568 94.3031 710.728H54.0048C50.1634 701.465 46.171 694.862 40.8916 689.87C35.5882 684.855 29.2006 681.671 20.9548 678.881V643.463L3.05176e-05 663.694V683.982H14.912C14.9076 684.167 14.9035 684.359 14.8998 684.557C14.8582 686.811 14.8744 689.901 15.1092 693.221C15.343 696.527 15.799 700.148 16.6663 703.433C17.5143 706.644 18.8495 709.911 21.089 712.15C23.3596 714.42 26.6673 715.683 29.8933 716.431C33.1946 717.197 36.8274 717.516 40.1378 717.616C43.4643 717.717 46.5581 717.6 48.8143 717.458C49.4424 717.419 50.0075 717.377 50.4969 717.338C51.2363 721.381 51.8519 726.905 51.8519 730.278V734.792L120.342 734.792C121.245 736.634 123.139 737.903 125.331 737.903ZM36.8259 694.17C41.0229 698.138 44.4671 703.505 47.9419 711.582C45.8648 711.701 43.1714 711.788 40.3171 711.701C37.2108 711.607 34.0056 711.311 31.2306 710.667C28.3798 710.005 26.3729 709.065 25.2733 707.965C24.1426 706.835 23.1445 704.787 22.3881 701.922C21.6512 699.131 21.2322 695.914 21.0123 692.804C20.8078 689.912 20.7802 687.185 20.8096 685.097C27.7323 687.582 32.7291 690.296 36.8259 694.17ZM15.0371 657.402V678.064H5.91782V666.206L15.0371 657.402Z" fill="#E69A28"/>
<mask id="path-4-inside-1_17_7150" fill="white">
<path d="M293.962 3.07495L293.962 734.828L149.77 734.828L149.77 3.07494L293.962 3.07495Z"/>
</mask>
<path d="M293.962 728.828L149.77 728.828L149.77 740.828L293.962 740.828L293.962 728.828ZM149.77 9.07494L293.962 9.07495L293.962 -2.92505L149.77 -2.92506L149.77 9.07494Z" fill="#E69A28" mask="url(#path-4-inside-1_17_7150)"/>
<mask id="path-6-inside-2_17_7150" fill="white">
<path d="M293.962 36.2598L293.962 701.643L149.77 701.643L149.77 36.2598L293.962 36.2598Z"/>
</mask>
<path d="M293.962 695.643L149.77 695.643L149.77 707.643L293.962 707.643L293.962 695.643ZM149.77 42.2598L293.962 42.2598L293.962 30.2598L149.77 30.2598L149.77 42.2598Z" fill="#E69A28" mask="url(#path-6-inside-2_17_7150)"/>
<path fill-rule="evenodd" clip-rule="evenodd" d="M318.401 0C316.209 0 314.316 1.26936 313.413 3.11109L293.962 3.1111V9.0289L314.073 9.02889C315.09 10.292 316.651 11.1026 318.401 11.1026C320.152 11.1026 321.713 10.292 322.729 9.02888L385.988 9.02884C386.112 12.6148 386.668 17.4368 387.347 21.2577H346.473L345.586 22.4483C341.482 27.9536 338.194 31.1311 334.396 33.0923C330.593 35.0558 325.965 35.9627 318.853 36.2934L293.962 36.2935L293.962 42.2113L318.989 42.2112L319.057 42.2081C326.5 41.8665 332.162 40.9058 337.111 38.3506C341.729 35.966 345.455 32.3347 349.429 27.1755H389.727C393.568 36.438 397.561 43.0415 402.84 48.0332C408.144 53.0476 414.531 56.2317 422.777 59.022V94.4397L443.732 74.2092V53.9213H428.82C428.824 53.7361 428.828 53.5442 428.832 53.346C428.874 51.092 428.857 48.0025 428.623 44.6818C428.389 41.3758 427.933 37.7553 427.065 34.4704C426.218 31.2589 424.882 27.9925 422.643 25.7532C420.372 23.4827 417.064 22.2199 413.839 21.4716C410.537 20.7058 406.904 20.3869 403.594 20.2866C400.268 20.1858 397.174 20.3035 394.918 20.445C394.289 20.4844 393.724 20.5258 393.235 20.5651C392.496 16.5218 391.88 10.9978 391.88 7.62536V3.11103L323.39 3.11108C322.487 1.26935 320.593 0 318.401 0ZM406.906 43.7332C402.709 39.7649 399.265 34.3985 395.79 26.321C397.867 26.2018 400.56 26.1152 403.415 26.2017C406.521 26.2958 409.726 26.5926 412.501 27.2363C415.352 27.8976 417.359 28.8384 418.458 29.9379C419.589 31.0685 420.587 33.1162 421.344 35.9811C422.081 38.772 422.5 41.989 422.719 45.0992C422.924 47.9914 422.952 50.7177 422.922 52.8062C415.999 50.3216 411.003 47.6067 406.906 43.7332ZM428.695 80.5008V59.8391H437.814V71.6967L428.695 80.5008Z" fill="#E69A28"/>
<path fill-rule="evenodd" clip-rule="evenodd" d="M422.782 658.463L422.782 79.4397L427.782 79.4397L427.782 658.463L422.782 658.463Z" fill="#E69A28"/>
<path fill-rule="evenodd" clip-rule="evenodd" d="M318.401 737.903C316.209 737.903 314.316 736.634 313.413 734.792L293.962 734.792V728.874L314.073 728.874C315.09 727.611 316.651 726.801 318.401 726.801C320.152 726.801 321.713 727.611 322.729 728.874L385.988 728.874C386.112 725.288 386.668 720.466 387.347 716.645H346.473L345.586 715.455C341.482 709.95 338.194 706.772 334.396 704.811C330.593 702.847 325.965 701.94 318.853 701.61L293.962 701.61L293.962 695.692L318.989 695.692L319.057 695.695C326.5 696.037 332.162 696.997 337.111 699.552C341.729 701.937 345.455 705.568 349.429 710.728H389.727C393.568 701.465 397.561 694.862 402.84 689.87C408.144 684.855 414.531 681.671 422.777 678.881V643.463L443.732 663.694V683.982H428.82C428.824 684.167 428.828 684.359 428.832 684.557C428.874 686.811 428.857 689.901 428.623 693.221C428.389 696.527 427.933 700.148 427.065 703.433C426.218 706.644 424.882 709.911 422.643 712.15C420.372 714.42 417.064 715.683 413.839 716.431C410.537 717.197 406.904 717.516 403.594 717.616C400.268 717.717 397.174 717.6 394.918 717.458C394.289 717.419 393.724 717.377 393.235 717.338C392.496 721.381 391.88 726.905 391.88 730.278V734.792L323.39 734.792C322.487 736.634 320.593 737.903 318.401 737.903ZM406.906 694.17C402.709 698.138 399.265 703.505 395.79 711.582C397.867 711.701 400.56 711.788 403.415 711.701C406.521 711.607 409.726 711.311 412.501 710.667C415.352 710.005 417.359 709.065 418.458 707.965C419.589 706.835 420.587 704.787 421.344 701.922C422.081 699.131 422.5 695.914 422.719 692.804C422.924 689.912 422.952 687.185 422.922 685.097C415.999 687.582 411.003 690.296 406.906 694.17ZM428.695 657.402V678.064H437.814V666.206L428.695 657.402Z" fill="#E69A28"/>
</svg>
